<mxfile host="app.diagrams.net" modified="2023-06-07T00:48:06.099Z" agent="Mozilla/5.0 (Windows NT 10.0; Win64; x64) AppleWebKit/537.36 (KHTML, like Gecko) Chrome/114.0.0.0 Safari/537.36" etag="HqcNsroclS0LWMrWr81q" version="21.3.7" type="device">
  <diagram name="페이지-1" id="EFwcT0glIQzLn1oYc4b0">
    <mxGraphModel dx="2607" dy="1375" grid="1" gridSize="10" guides="1" tooltips="1" connect="1" arrows="1" fold="1" page="1" pageScale="1" pageWidth="4681" pageHeight="3300" math="0" shadow="0">
      <root>
        <mxCell id="0" />
        <mxCell id="1" parent="0" />
        <mxCell id="w1JllA-rPxbgImlikQOd-1" value="Actor" style="shape=umlActor;verticalLabelPosition=bottom;verticalAlign=top;html=1;outlineConnect=0;" vertex="1" parent="1">
          <mxGeometry x="120" y="100" width="360" height="370" as="geometry" />
        </mxCell>
        <mxCell id="w1JllA-rPxbgImlikQOd-11" style="edgeStyle=orthogonalEdgeStyle;rounded=0;orthogonalLoop=1;jettySize=auto;html=1;" edge="1" parent="1" source="w1JllA-rPxbgImlikQOd-7" target="w1JllA-rPxbgImlikQOd-8">
          <mxGeometry relative="1" as="geometry" />
        </mxCell>
        <mxCell id="w1JllA-rPxbgImlikQOd-12" style="edgeStyle=orthogonalEdgeStyle;rounded=0;orthogonalLoop=1;jettySize=auto;html=1;entryX=0.003;entryY=0.652;entryDx=0;entryDy=0;entryPerimeter=0;" edge="1" parent="1" source="w1JllA-rPxbgImlikQOd-7" target="w1JllA-rPxbgImlikQOd-9">
          <mxGeometry relative="1" as="geometry" />
        </mxCell>
        <mxCell id="w1JllA-rPxbgImlikQOd-13" style="rounded=0;orthogonalLoop=1;jettySize=auto;html=1;" edge="1" parent="1" source="w1JllA-rPxbgImlikQOd-7" target="w1JllA-rPxbgImlikQOd-10">
          <mxGeometry relative="1" as="geometry" />
        </mxCell>
        <mxCell id="w1JllA-rPxbgImlikQOd-7" value="&lt;font style=&quot;font-size: 24px;&quot;&gt;거래처 리스트 보기&lt;/font&gt;" style="ellipse;whiteSpace=wrap;html=1;" vertex="1" parent="1">
          <mxGeometry x="640" y="190" width="450" height="270" as="geometry" />
        </mxCell>
        <mxCell id="w1JllA-rPxbgImlikQOd-15" style="edgeStyle=orthogonalEdgeStyle;rounded=0;orthogonalLoop=1;jettySize=auto;html=1;" edge="1" parent="1" source="w1JllA-rPxbgImlikQOd-8" target="w1JllA-rPxbgImlikQOd-14">
          <mxGeometry relative="1" as="geometry" />
        </mxCell>
        <mxCell id="w1JllA-rPxbgImlikQOd-8" value="&lt;font style=&quot;font-size: 24px;&quot;&gt;거래처 츄가&lt;/font&gt;" style="ellipse;whiteSpace=wrap;html=1;" vertex="1" parent="1">
          <mxGeometry x="1250" y="10" width="450" height="270" as="geometry" />
        </mxCell>
        <mxCell id="w1JllA-rPxbgImlikQOd-16" style="edgeStyle=orthogonalEdgeStyle;rounded=0;orthogonalLoop=1;jettySize=auto;html=1;" edge="1" parent="1" target="w1JllA-rPxbgImlikQOd-14">
          <mxGeometry relative="1" as="geometry">
            <mxPoint x="1690" y="510" as="sourcePoint" />
          </mxGeometry>
        </mxCell>
        <mxCell id="w1JllA-rPxbgImlikQOd-9" value="&lt;font style=&quot;font-size: 24px;&quot;&gt;거래처 상세 보기&lt;/font&gt;" style="ellipse;whiteSpace=wrap;html=1;" vertex="1" parent="1">
          <mxGeometry x="1250" y="380" width="450" height="270" as="geometry" />
        </mxCell>
        <mxCell id="w1JllA-rPxbgImlikQOd-17" style="edgeStyle=orthogonalEdgeStyle;rounded=0;orthogonalLoop=1;jettySize=auto;html=1;entryX=0;entryY=0.5;entryDx=0;entryDy=0;entryPerimeter=0;" edge="1" parent="1" source="w1JllA-rPxbgImlikQOd-10" target="w1JllA-rPxbgImlikQOd-14">
          <mxGeometry relative="1" as="geometry" />
        </mxCell>
        <mxCell id="w1JllA-rPxbgImlikQOd-10" value="&lt;font style=&quot;font-size: 24px;&quot;&gt;거래처 수정&lt;/font&gt;" style="ellipse;whiteSpace=wrap;html=1;" vertex="1" parent="1">
          <mxGeometry x="1250" y="700" width="450" height="270" as="geometry" />
        </mxCell>
        <mxCell id="w1JllA-rPxbgImlikQOd-14" value="&lt;font style=&quot;font-size: 48px;&quot;&gt;거래처 정보 Table&lt;/font&gt;" style="shape=cylinder3;whiteSpace=wrap;html=1;boundedLbl=1;backgroundOutline=1;size=15;" vertex="1" parent="1">
          <mxGeometry x="1960" y="170" width="470" height="690" as="geometry" />
        </mxCell>
      </root>
    </mxGraphModel>
  </diagram>
</mxfile>
